<?xml version="1.0" encoding="UTF-8"?><svg xmlns="http://www.w3.org/2000/svg" xmlns:xlink="http://www.w3.org/1999/xlink" version="1.1" id="Layer_1" x="0px" y="0px" viewBox="0 0 24 24" xml:space="preserve"><style type="text/css">.st0{fill:#4A4A4A;}</style><path class="st0" d="M11.5 10.9c-4 0-7.9.9-11.5 2.8h22.9c-3.6-1.9-7.4-2.8-11.4-2.8z" fill="#4A4A4A"/><path class="st0" d="M16.7 14.8c-1.7 0-3.1 1.1-3.6 2.6-1-.3-1.9-.3-2.8-.1-.6-1.4-1.9-2.4-3.6-2.4-2.1 0-3.8 1.7-3.8 3.8 0 2.1 1.7 3.8 3.8 3.8s3.8-1.7 3.8-3.8v-.4c.8-.2 1.6-.1 2.4.2v.3c0 2.1 1.7 3.8 3.8 3.8 2.1 0 3.8-1.7 3.8-3.8 0-2.2-1.7-4-3.8-4zm-7.2 3.9c0 1.6-1.3 2.8-2.8 2.8-1.6 0-2.8-1.3-2.8-2.8s1.3-2.8 2.8-2.8c1.2 0 2.2.7 2.6 1.7.1.3.2.6.2 1.1 0-.1 0-.1 0 0zm7.2 2.8c-1.6 0-2.8-1.3-2.8-2.8s1.3-2.8 2.8-2.8 2.8 1.3 2.8 2.8-1.3 2.8-2.8 2.8z" fill="#4A4A4A"/><path class="st0" fill="#4A4A4A" d="M16.7 2L9.9 3.1 6.6 2 4.4 8.7h14.5z"/><metadata><rdf:RDF xmlns:rdf="http://www.w3.org/1999/02/22-rdf-syntax-ns#" xmlns:rdfs="http://www.w3.org/2000/01/rdf-schema#" xmlns:dc="http://purl.org/dc/elements/1.1/"><rdf:Description about="https://iconscout.com/legal#licenses" dc:title="incognito" dc:description="incognito" dc:publisher="Iconscout" dc:date="2018-06-28" dc:format="image/svg+xml" dc:language="en"><dc:creator><rdf:Bag><rdf:li>Avinash P</rdf:li></rdf:Bag></dc:creator></rdf:Description></rdf:RDF></metadata></svg>